<?xml version="1.0" encoding="UTF-8"?> <svg xmlns="http://www.w3.org/2000/svg" width="140" height="40" viewBox="0 0 140 40" fill="none"><path d="M139.892 11.8996C139.892 10.0821 138.418 8.60767 136.6 8.60767H130.893H122.509H113.071C111.905 8.60767 110.96 9.55233 110.96 10.7182C110.96 11.8841 111.905 12.8288 113.071 12.8288H121.318L111.774 22.3723C111.123 23.024 110.757 23.9077 110.757 24.8284C110.757 26.7464 112.313 28.3021 114.231 28.3021H119.498H127.938H137.78C138.946 28.3021 139.891 27.3575 139.891 26.1916C139.891 25.0257 138.946 24.081 137.78 24.081H129.071L138.926 14.2266C139.545 13.6096 139.892 12.7726 139.892 11.8996ZM123.109 24.0822H116.029L127.282 12.8288H134.363L123.109 24.0822Z" fill="#2E3192"></path><path d="M57.7 0C58.8826 0 59.8417 0.959015 59.8417 2.14164V10.1163C61.4978 8.93606 63.4003 8.34653 65.5515 8.34653C68.3114 8.34653 70.6658 9.32229 72.6173 11.2726C74.5677 13.2229 75.5434 15.5786 75.5434 18.3385C75.5434 21.0983 74.5677 23.454 72.6173 25.4043C70.7448 27.2769 68.1978 28.3304 65.5503 28.3304C62.7904 28.3304 60.436 27.3546 58.4856 25.4043C56.5353 23.454 55.5596 21.0983 55.5596 18.3385V2.14164C55.5596 0.959015 56.5174 0 57.7 0ZM61.5122 14.2979C60.3989 15.4112 59.8417 16.7576 59.8417 18.3373C59.8417 19.9169 60.3989 21.2633 61.5122 22.3766C62.6254 23.4899 63.9719 24.0471 65.5515 24.0471C67.1311 24.0471 68.4776 23.4899 69.5908 22.3766C70.7041 21.2633 71.2613 19.9169 71.2613 18.3373C71.2613 16.7576 70.7041 15.4112 69.5908 14.2979C68.4776 13.1847 67.1311 12.6274 65.5515 12.6274C63.9719 12.6286 62.6254 13.1847 61.5122 14.2979Z" fill="#2E3192"></path><path d="M83.5279 2.14188V26.189C83.5279 27.3716 82.5689 28.3306 81.3863 28.3306C80.2036 28.3306 79.2446 27.3716 79.2446 26.189V2.14188C79.2446 0.959259 80.2036 0.000244141 81.3863 0.000244141C82.5689 0.000244141 83.5279 0.959259 83.5279 2.14188Z" fill="#2E3192"></path><path d="M87.6348 18.3385V10.7298C87.6348 9.54715 88.5938 8.58813 89.7764 8.58813C90.959 8.58813 91.918 9.54715 91.918 10.7298V18.3385C91.918 19.9181 92.4753 21.2646 93.5885 22.3779C94.7018 23.4911 96.0483 24.0484 97.6279 24.0484C99.2075 24.0484 100.554 23.4911 101.667 22.3779C102.78 21.2646 103.338 19.9181 103.338 18.3385V10.7298C103.338 9.54715 104.297 8.58813 105.479 8.58813C106.662 8.58813 107.621 9.54715 107.621 10.7298V18.3385C107.621 21.0984 106.645 23.4541 104.695 25.4044C102.822 27.277 100.275 28.3304 97.6279 28.3304C94.868 28.3304 92.5135 27.3547 90.5632 25.4044C88.6105 23.4529 87.6348 21.0984 87.6348 18.3385Z" fill="#2E3192"></path><path d="M101.531 37.3023C101.365 37.1767 101.169 37.0655 100.946 36.9722C100.725 36.879 100.486 36.7929 100.239 36.7175C99.991 36.6422 99.7316 36.5705 99.4697 36.5047C99.2078 36.4401 98.9483 36.3743 98.7008 36.311C98.4545 36.2476 98.2165 36.1782 97.9965 36.1065C97.7765 36.0347 97.5827 35.9534 97.4189 35.8649C97.2563 35.7776 97.126 35.6748 97.0315 35.5612C96.9382 35.4488 96.8904 35.3173 96.8904 35.1678C96.8904 34.9884 96.9406 34.8318 97.0399 34.7026C97.1403 34.5723 97.2874 34.4623 97.4787 34.3762C97.6712 34.2901 97.9104 34.2243 98.189 34.1837C98.4688 34.1418 98.7917 34.1215 99.1492 34.1215C99.4446 34.1215 99.7172 34.1382 99.9599 34.1729C100.203 34.2064 100.424 34.2494 100.616 34.2997C100.81 34.3499 100.985 34.4073 101.134 34.4707C101.285 34.534 101.42 34.595 101.536 34.6512L101.565 34.6656V33.9756L101.55 33.972C101.355 33.9218 101.163 33.8728 100.976 33.8285C100.787 33.7843 100.593 33.7436 100.395 33.7101C100.197 33.6755 99.9899 33.648 99.7782 33.6276C99.3716 33.5882 98.9053 33.5846 98.4377 33.6276C98.2153 33.648 97.9977 33.6826 97.7908 33.7281C97.5839 33.7747 97.3866 33.8381 97.2049 33.917C97.0219 33.9959 96.8605 34.0964 96.7242 34.2124C96.5879 34.3296 96.4778 34.4707 96.4001 34.6321C96.3212 34.7935 96.2817 34.9801 96.2817 35.1869C96.2817 35.3986 96.332 35.5863 96.43 35.7466C96.5281 35.9056 96.6608 36.0479 96.8282 36.1699C96.9944 36.2906 97.1905 36.3971 97.4129 36.4867C97.6342 36.5764 97.8721 36.6577 98.1185 36.7283C98.3648 36.8 98.6219 36.8658 98.8849 36.9268C99.1468 36.9878 99.4039 37.05 99.6502 37.1145C99.8954 37.1779 100.132 37.2485 100.352 37.3214C100.572 37.3955 100.766 37.4804 100.929 37.5761C101.091 37.6706 101.22 37.783 101.316 37.9085C101.409 38.0329 101.457 38.1788 101.457 38.3426C101.457 38.5483 101.397 38.7241 101.281 38.8652C101.163 39.0075 100.995 39.1258 100.783 39.2143C100.569 39.304 100.31 39.371 100.015 39.4116C99.7208 39.4535 99.3932 39.4738 99.044 39.4738C98.5501 39.4738 98.073 39.4284 97.6258 39.3399C97.1786 39.2514 96.7493 39.0852 96.3487 38.8472L96.3188 38.8293V39.5611L96.332 39.5659C96.7242 39.6998 97.1415 39.8062 97.5732 39.884C98.006 39.9617 98.4939 39.9999 99.0249 39.9999C99.2556 39.9999 99.4948 39.9904 99.7339 39.9712C99.9731 39.9521 100.209 39.9174 100.432 39.8708C100.657 39.823 100.871 39.7572 101.07 39.6759C101.268 39.5934 101.444 39.4893 101.592 39.365C101.74 39.2406 101.86 39.09 101.947 38.9166C102.035 38.7432 102.079 38.5387 102.079 38.3079C102.079 38.0939 102.029 37.9025 101.931 37.7399C101.831 37.5749 101.697 37.429 101.531 37.3023Z" fill="#2E3192"></path><path d="M108.462 33.7053H107.782L104.567 39.8492L104.552 39.8779H105.208L106.052 38.2577H110.193L111.038 39.8779H111.694L108.469 33.7161L108.462 33.7053ZM109.9 37.7088H106.345L108.125 34.3068L109.9 37.7088Z" fill="#2E3192"></path><path d="M119.076 32.3374L118.831 31.8328L116.884 32.8001L117.075 33.1828L119.076 32.3374Z" fill="#2E3192"></path><path d="M119.979 37.9743C119.979 38.1751 119.926 38.3677 119.819 38.547C119.713 38.7264 119.551 38.8854 119.341 39.0206C119.129 39.1557 118.864 39.2645 118.552 39.3434C118.24 39.4235 117.872 39.463 117.462 39.463C117.05 39.463 116.682 39.4223 116.369 39.3434C116.057 39.2645 115.792 39.1557 115.58 39.0206C115.37 38.8854 115.208 38.7264 115.102 38.547C114.995 38.3677 114.942 38.1751 114.942 37.9743V33.7053H114.344V37.93C114.344 38.2385 114.41 38.5231 114.54 38.7754C114.67 39.0289 114.869 39.249 115.128 39.4295C115.388 39.6101 115.715 39.7512 116.103 39.8504C116.489 39.9485 116.946 39.9987 117.46 39.9987C117.974 39.9987 118.431 39.9485 118.817 39.8504C119.205 39.7524 119.532 39.6101 119.791 39.4295C120.049 39.249 120.247 39.0289 120.378 38.7754C120.508 38.5219 120.574 38.2373 120.574 37.93V33.7053H119.976V37.9743H119.979Z" fill="#2E3192"></path><path d="M129.905 34.3582C129.587 34.1214 129.206 33.9504 128.775 33.8524C128.343 33.7543 127.871 33.7041 127.368 33.7041H124.192V39.8767H127.377C127.712 39.8767 128.037 39.8552 128.342 39.8121C128.647 39.7691 128.934 39.6985 129.194 39.6041C129.455 39.5084 129.695 39.3805 129.909 39.2214C130.123 39.0636 130.306 38.8675 130.457 38.6403C130.607 38.4131 130.724 38.144 130.805 37.8379C130.888 37.533 130.928 37.179 130.928 36.7856C130.928 36.1997 130.836 35.7023 130.657 35.3088C130.475 34.9166 130.223 34.5962 129.905 34.3582ZM130.317 36.7892C130.317 37.2843 130.244 37.7004 130.1 38.0256C129.956 38.3497 129.753 38.6116 129.496 38.8041C129.239 38.9966 128.926 39.1341 128.568 39.2119C128.208 39.2896 127.805 39.3302 127.371 39.3302H124.79V34.253H127.371C127.66 34.253 127.938 34.2697 128.195 34.302C128.451 34.3343 128.692 34.3905 128.91 34.4682C129.127 34.5459 129.326 34.65 129.499 34.7767C129.673 34.9023 129.821 35.0613 129.942 35.2479C130.062 35.4344 130.156 35.6568 130.22 35.9103C130.284 36.1626 130.317 36.4592 130.317 36.7892Z" fill="#2E3192"></path><path d="M134.805 39.3159V36.8873H139.082V36.3384H134.805V34.2661H139.309V33.7053H134.159V39.8779H139.376V39.3159H134.805Z" fill="#2E3192"></path><path d="M4.9577 16.1106C2.21937 16.1106 0 18.33 0 21.0683C0 23.8066 2.21937 26.026 4.9577 26.026C9.7456 26.026 11.9841 21.0683 18.061 21.0683C11.9841 21.0671 9.7456 16.1106 4.9577 16.1106Z" fill="#00B1CD"></path><path d="M30.223 16.1106C32.9613 16.1106 35.1807 18.33 35.1807 21.0683C35.1807 23.8066 32.9613 26.026 30.223 26.026C25.4351 26.026 23.1966 21.0683 17.1196 21.0683C23.1966 21.0671 25.4351 16.1106 30.223 16.1106Z" fill="#00B1CD"></path><path d="M17.1315 9.04126C14.3932 9.04126 12.1738 11.2606 12.1738 13.999C12.1738 16.7373 14.3932 18.9567 17.1315 18.9567C21.9194 18.9567 24.1579 13.999 30.2349 13.999C24.1579 13.999 21.9194 9.04126 17.1315 9.04126Z" fill="#00B1CD"></path><path d="M29.3957 1.97192C26.6574 1.97192 24.438 4.19129 24.438 6.92963C24.438 9.66796 26.6574 11.8873 29.3957 11.8873C34.1836 11.8873 36.4221 6.92963 42.499 6.92963C36.4233 6.92963 34.1848 1.97192 29.3957 1.97192Z" fill="#00B1CD"></path><path d="M42.3988 9.04126C45.1371 9.04126 47.3565 11.2606 47.3565 13.999C47.3565 16.7373 45.1371 18.9567 42.3988 18.9567C37.6109 18.9567 35.3724 13.999 29.2954 13.999C35.3712 13.999 37.6097 9.04126 42.3988 9.04126Z" fill="#00B1CD"></path></svg> 